<svg xmlns="http://www.w3.org/2000/svg" xmlns:xlink="http://www.w3.org/1999/xlink" width="1000" zoomAndPan="magnify" viewBox="0 0 750 149.999998" height="200" preserveAspectRatio="xMidYMid meet" version="1.0"><defs><g/></defs><path fill="#000000" d="M 62.058594 27.570312 C 51.136719 29.539062 42.332031 38.40625 40.40625 49.375 C 39.929688 52.101562 39.929688 60.863281 40.40625 62.007812 C 40.839844 63.023438 41.488281 63.695312 42.570312 64.277344 C 43.433594 64.753906 43.476562 64.753906 59.421875 64.753906 L 75.382812 64.753906 L 75.75 63.542969 C 76.359375 61.640625 77.265625 60.167969 78.738281 58.785156 C 80.273438 57.355469 81.65625 56.578125 83.496094 56.101562 C 88.40625 54.828125 93.816406 57.292969 96 61.855469 C 96.410156 62.722656 96.757812 63.652344 96.757812 63.890625 C 96.777344 64.90625 96.152344 64.886719 113 64.820312 C 128.792969 64.753906 128.878906 64.753906 129.746094 64.277344 C 130.824219 63.695312 131.476562 63.023438 131.90625 62.007812 C 132.382812 60.863281 132.382812 52.101562 131.90625 49.375 C 130.21875 39.75 123.253906 31.660156 113.953125 28.542969 C 109.953125 27.203125 110.363281 27.226562 85.960938 27.246094 C 67.75 27.269531 63.464844 27.3125 62.058594 27.570312 Z M 62.058594 27.570312 " fill-opacity="1" fill-rule="nonzero"/><path fill="#000000" d="M 42.417969 72.390625 C 41.835938 72.714844 41.121094 73.363281 40.796875 73.839844 L 40.191406 74.707031 L 40.125 84.960938 C 40.0625 96.273438 40.148438 97.355469 41.402344 101.074219 C 44.515625 110.375 52.605469 117.363281 62.234375 119.050781 C 65.085938 119.546875 106.859375 119.546875 109.953125 119.050781 C 119.554688 117.472656 127.796875 110.421875 130.914062 101.074219 C 132.125 97.417969 132.230469 96.25 132.230469 85.242188 C 132.230469 75.65625 132.210938 75.203125 131.800781 74.382812 C 131.28125 73.363281 130.652344 72.757812 129.59375 72.195312 C 128.816406 71.808594 128.121094 71.785156 112.289062 71.785156 L 95.78125 71.785156 L 95.175781 72.757812 C 94.832031 73.300781 93.988281 74.25 93.273438 74.878906 L 91.996094 76.046875 L 91.996094 80.613281 C 91.996094 83.121094 91.890625 85.671875 91.757812 86.277344 C 91.433594 87.75 90.375 89.265625 89.097656 90.0625 C 88.125 90.648438 87.867188 90.714844 86.179688 90.714844 C 84.535156 90.714844 84.210938 90.648438 83.28125 90.105469 C 82.71875 89.761719 81.960938 89.089844 81.59375 88.617188 C 80.488281 87.058594 80.316406 86.0625 80.316406 80.804688 L 80.316406 76.046875 L 79.039062 74.878906 C 78.328125 74.25 77.480469 73.300781 77.136719 72.757812 L 76.53125 71.785156 L 43.433594 71.785156 Z M 42.417969 72.390625 " fill-opacity="1" fill-rule="nonzero"/><g fill="#000000" fill-opacity="1"><g transform="translate(150.814217, 114.294297)"><g><path d="M 88.085938 -83.867188 L 77.039062 -83.867188 C 75.730469 -83.867188 74.726562 -83.164062 74.125 -81.757812 L 49.515625 -19.585938 C 49.515625 -19.386719 49.417969 -19.386719 49.417969 -19.386719 L 49.015625 -19.285156 C 49.015625 -19.285156 49.015625 -19.386719 48.914062 -19.585938 L 23.90625 -81.757812 C 23.503906 -83.164062 22.5 -83.867188 21.09375 -83.867188 L 10.246094 -83.867188 C 8.738281 -83.867188 8.234375 -82.863281 8.136719 -82.460938 C 7.933594 -81.757812 8.035156 -80.953125 8.4375 -79.949219 L 36.558594 -10.445312 C 36.863281 -9.84375 37.0625 -9.339844 37.261719 -8.9375 C 38.769531 -3.617188 43.691406 0.101562 49.214844 0.101562 C 51.726562 0.101562 54.136719 -0.703125 56.144531 -2.109375 C 56.75 -2.410156 57.25 -2.710938 57.652344 -3.113281 C 59.160156 -4.417969 60.566406 -6.828125 62.070312 -10.445312 L 89.996094 -79.949219 C 90.394531 -80.953125 90.496094 -81.757812 90.296875 -82.460938 C 90.09375 -82.964844 89.59375 -83.867188 88.085938 -83.867188 Z M 88.085938 -83.867188 "/></g></g></g><g fill="#000000" fill-opacity="1"><g transform="translate(254.256876, 114.294297)"><g><path d="M 61.871094 -73.421875 C 61.671875 -73.925781 61.46875 -74.527344 61.269531 -74.929688 C 59.660156 -80.152344 54.839844 -83.867188 49.316406 -83.867188 C 46.804688 -83.867188 44.394531 -83.164062 42.386719 -81.757812 C 41.78125 -81.457031 41.28125 -81.054688 40.878906 -80.753906 C 39.371094 -79.449219 37.867188 -77.039062 36.460938 -73.421875 L 8.4375 -3.816406 C 8.136719 -2.914062 8.035156 -2.007812 8.234375 -1.40625 C 8.335938 -0.804688 8.839844 0.101562 10.445312 0.101562 L 21.496094 0.101562 C 22.800781 0.101562 23.804688 -0.703125 24.304688 -2.007812 L 30.03125 -16.371094 L 52.027344 -16.371094 C 53.132812 -16.371094 54.136719 -16.875 54.640625 -17.777344 C 55.242188 -18.582031 55.34375 -19.6875 55.042969 -20.691406 L 51.425781 -29.628906 C 50.921875 -30.835938 49.816406 -31.636719 48.511719 -31.636719 L 36.058594 -31.636719 L 48.914062 -64.179688 C 49.015625 -64.382812 49.113281 -64.484375 49.113281 -64.484375 L 49.515625 -64.484375 C 49.515625 -64.484375 49.515625 -64.484375 49.617188 -64.28125 L 74.527344 -2.109375 C 75.027344 -0.703125 76.03125 0.101562 77.4375 0.101562 L 88.1875 0.101562 C 89.792969 0.101562 90.195312 -0.902344 90.394531 -1.40625 C 90.597656 -2.007812 90.496094 -2.914062 90.09375 -3.816406 Z M 61.871094 -73.421875 "/></g></g></g><g fill="#000000" fill-opacity="1"><g transform="translate(357.900402, 114.294297)"><g><path d="M 77.4375 -82.761719 L 68.199219 -82.761719 C 67.292969 -82.761719 65.386719 -82.460938 65.386719 -79.347656 L 65.386719 -29.832031 C 65.386719 -26.816406 65.1875 -24.207031 64.882812 -22.296875 C 64.582031 -20.390625 63.980469 -18.882812 63.277344 -17.777344 C 62.472656 -16.773438 61.570312 -16.070312 60.265625 -15.566406 C 58.957031 -15.167969 57.148438 -14.863281 55.042969 -14.863281 L 33.347656 -14.863281 C 31.238281 -14.863281 29.429688 -15.167969 28.125 -15.566406 C 26.816406 -16.070312 25.914062 -16.773438 25.109375 -17.777344 C 24.40625 -18.882812 23.804688 -20.390625 23.402344 -22.296875 C 23.101562 -24.207031 22.898438 -26.816406 22.898438 -29.832031 L 22.898438 -79.347656 C 22.898438 -82.460938 20.992188 -82.761719 20.089844 -82.761719 L 10.949219 -82.761719 C 10.042969 -82.761719 8.035156 -82.460938 8.035156 -79.347656 L 8.035156 -31.4375 C 8.035156 -25.8125 8.4375 -20.992188 9.339844 -17.074219 C 10.246094 -13.058594 11.75 -9.742188 13.761719 -7.230469 C 15.667969 -4.621094 18.378906 -2.8125 21.496094 -1.605469 C 24.609375 -0.503906 28.425781 0 32.84375 0 L 55.441406 0 C 59.863281 0 63.679688 -0.503906 66.792969 -1.605469 C 70.007812 -2.8125 72.617188 -4.621094 74.625 -7.230469 C 76.636719 -9.742188 78.042969 -13.058594 78.945312 -17.074219 C 79.851562 -20.992188 80.25 -25.8125 80.25 -31.4375 L 80.25 -79.347656 C 80.25 -82.460938 78.34375 -82.761719 77.4375 -82.761719 Z M 77.4375 -82.761719 "/></g></g></g><g fill="#000000" fill-opacity="1"><g transform="translate(451.199659, 114.294297)"><g><path d="M 65.988281 -14.863281 L 33.347656 -14.863281 C 31.238281 -14.863281 29.53125 -15.066406 28.125 -15.566406 C 26.917969 -15.96875 25.914062 -16.671875 25.210938 -17.777344 C 24.40625 -18.882812 23.804688 -20.390625 23.503906 -22.195312 C 23.101562 -24.207031 23 -26.71875 23 -29.730469 L 23 -79.246094 C 23 -82.460938 20.992188 -82.761719 20.1875 -82.761719 L 10.949219 -82.761719 C 10.042969 -82.761719 8.035156 -82.460938 8.035156 -79.246094 L 8.035156 -31.4375 C 8.035156 -25.8125 8.539062 -20.992188 9.441406 -17.074219 C 10.34375 -13.058594 11.75 -9.742188 13.761719 -7.230469 C 15.769531 -4.621094 18.378906 -2.710938 21.59375 -1.605469 C 24.609375 -0.503906 28.425781 0.101562 32.84375 0.101562 L 65.988281 0.101562 C 66.894531 0.101562 68.800781 -0.300781 68.800781 -3.414062 L 68.800781 -11.351562 C 68.800781 -14.464844 66.894531 -14.863281 65.988281 -14.863281 Z M 65.988281 -14.863281 "/></g></g></g><g fill="#000000" fill-opacity="1"><g transform="translate(533.049928, 114.294297)"><g><path d="M 77.4375 -82.761719 L 10.949219 -82.761719 C 10.042969 -82.761719 8.035156 -82.460938 8.035156 -79.347656 L 8.035156 -71.511719 C 8.035156 -68.199219 10.042969 -67.898438 10.949219 -67.898438 L 36.761719 -67.898438 L 36.761719 -3.414062 C 36.761719 -0.300781 38.769531 0 39.574219 0 L 48.8125 0 C 49.71875 0 51.625 -0.300781 51.625 -3.414062 L 51.625 -67.898438 L 77.4375 -67.898438 C 78.34375 -67.898438 80.351562 -68.199219 80.351562 -71.511719 L 80.351562 -79.347656 C 80.351562 -82.460938 78.34375 -82.761719 77.4375 -82.761719 Z M 77.4375 -82.761719 "/></g></g></g><g fill="#5ce1e6" fill-opacity="1"><g transform="translate(626.454818, 114.294297)"><g><path d="M 62.375 -84.167969 L 10.246094 -84.167969 C 8.738281 -84.167969 8.035156 -83.265625 8.035156 -81.457031 L 8.035156 -72.117188 C 8.035156 -70.308594 8.738281 -69.402344 10.246094 -69.402344 L 59.460938 -69.402344 C 62.171875 -69.402344 64.082031 -68.902344 65.285156 -67.695312 C 66.492188 -66.589844 67.09375 -64.683594 67.09375 -62.070312 L 67.09375 -56.546875 C 67.09375 -54.238281 66.492188 -52.53125 65.1875 -51.222656 C 63.980469 -50.019531 61.769531 -49.417969 58.355469 -49.417969 L 16.371094 -49.417969 C 14.863281 -49.417969 14.0625 -48.511719 14.0625 -46.703125 L 14.0625 -38.167969 C 14.0625 -36.460938 14.863281 -35.554688 16.371094 -35.554688 L 58.355469 -35.554688 C 61.769531 -35.554688 64.082031 -34.851562 65.285156 -33.546875 C 66.492188 -32.242188 67.195312 -30.332031 67.195312 -27.820312 L 67.195312 -22.195312 C 67.195312 -19.585938 66.589844 -17.777344 65.386719 -16.574219 C 64.179688 -15.367188 62.273438 -14.765625 59.660156 -14.765625 L 10.246094 -14.765625 C 8.738281 -14.765625 8.035156 -13.859375 8.035156 -12.054688 L 8.035156 -2.613281 C 8.035156 -0.804688 8.738281 0.101562 10.246094 0.101562 L 64.179688 0.101562 C 67.496094 0.101562 70.308594 -0.402344 72.617188 -1.40625 C 74.828125 -2.308594 76.734375 -3.714844 78.140625 -5.523438 C 79.546875 -7.332031 80.554688 -9.542969 81.15625 -12.054688 C 81.757812 -14.664062 82.058594 -17.578125 82.058594 -20.792969 L 82.058594 -27.722656 C 82.058594 -34.753906 79.949219 -39.976562 75.632812 -43.289062 C 79.546875 -46.804688 81.558594 -51.828125 81.558594 -58.554688 L 81.558594 -64.28125 C 81.558594 -70.910156 80.050781 -75.933594 77.136719 -79.246094 C 74.226562 -82.460938 69.304688 -84.167969 62.375 -84.167969 Z M 62.375 -84.167969 "/></g></g></g></svg>